# xmcd
#
# Track frame offsets:
#	150
#	15735
#	29349
#	41602
#	53985
#	66306
#	79673
#	93965
#	107626
#	120236
#	134889
#	147768
#	158938
#	171655
#	185821
#	197968
#	210153
#	224758
#	239746
#	251771
#	264490
#
# Disc length: 3708 seconds
#
# Revision: 1
# Processed by: cddbd v1.5.1PL2 Copyright (c) Steve Scherf et al.
# Submitted via: audiograbber 1.83.01
#
DISCID=450e7a15
DTITLE=Alvarenga e Ranchinho - Violeiro triste
DYEAR=2006
DGENRE=Latin
TTITLE0=Boi Amarelinho 
TTITLE1=Seresta 
TTITLE2=Violeiro Triste 
TTITLE3=Você Não Era Assim 
TTITLE4=Itália e Abissínia 
TTITLE5=Valsa das Palmas 
TTITLE6=Moda dos Meses 
TTITLE7=Drama da Angélica 
TTITLE8=A Muié pra Cada um 
TTITLE9=Aquela Flor 
TTITLE10=Carrêro Bão 
TTITLE11=Devo e Não Négo 
TTITLE12=Apelido dos Jogadores 
TTITLE13=Ave Maria 
TTITLE14=Moda do Beijo 
TTITLE15=Liga das Nações 
TTITLE16=Liga dos Bichos 
TTITLE17=Romance de uma Caveira 
TTITLE18=Gaúcho de Lei 
TTITLE19=Sinhá Rita 
TTITLE20=Moda do Casamento 
EXTD=
EXTT0=
EXTT1=
EXTT2=
EXTT3=
EXTT4=
EXTT5=
EXTT6=
EXTT7=
EXTT8=
EXTT9=
EXTT10=
EXTT11=
EXTT12=
EXTT13=
EXTT14=
EXTT15=
EXTT16=
EXTT17=
EXTT18=
EXTT19=
EXTT20=
PLAYORDER=
